<mxfile host="app.diagrams.net" modified="2021-03-06T08:27:23.074Z" agent="5.0 (Windows NT 10.0; WOW64) AppleWebKit/537.36 (KHTML, like Gecko) Chrome/70.0.3538.25 Safari/537.36 Core/1.70.3861.400 QQBrowser/10.7.4313.400" etag="jm1dlUer4TkqKprycB8G" version="14.2.9" type="github">
  <diagram id="sQ6djOb2pGjh4PNV8spg" name="Page-1">
    <mxGraphModel dx="1067" dy="486" grid="1" gridSize="10" guides="1" tooltips="1" connect="1" arrows="1" fold="1" page="1" pageScale="1" pageWidth="827" pageHeight="1169" math="0" shadow="0">
      <root>
        <mxCell id="0" />
        <mxCell id="1" parent="0" />
        <mxCell id="tDibTG8U5VY8NC5ciB29-3" style="edgeStyle=orthogonalEdgeStyle;rounded=0;orthogonalLoop=1;jettySize=auto;html=1;" edge="1" parent="1" source="tDibTG8U5VY8NC5ciB29-1" target="tDibTG8U5VY8NC5ciB29-2">
          <mxGeometry relative="1" as="geometry" />
        </mxCell>
        <mxCell id="tDibTG8U5VY8NC5ciB29-1" value="&lt;font style=&quot;font-size: 14px&quot;&gt;eureka-server模块&lt;br&gt;web.xml&lt;/font&gt;" style="rounded=1;whiteSpace=wrap;html=1;" vertex="1" parent="1">
          <mxGeometry x="280" y="30" width="150" height="60" as="geometry" />
        </mxCell>
        <mxCell id="tDibTG8U5VY8NC5ciB29-6" style="edgeStyle=orthogonalEdgeStyle;rounded=0;orthogonalLoop=1;jettySize=auto;html=1;entryX=0.5;entryY=0;entryDx=0;entryDy=0;" edge="1" parent="1" source="tDibTG8U5VY8NC5ciB29-2" target="tDibTG8U5VY8NC5ciB29-4">
          <mxGeometry relative="1" as="geometry" />
        </mxCell>
        <mxCell id="tDibTG8U5VY8NC5ciB29-2" value="&lt;div&gt;&lt;font style=&quot;font-size: 14px&quot;&gt;&amp;nbsp;&amp;lt;listener&amp;gt;&lt;/font&gt;&lt;/div&gt;&lt;div&gt;&lt;font size=&quot;3&quot;&gt;&amp;nbsp; &amp;nbsp; &amp;lt;listener-class&amp;gt;com.netflix.eureka.EurekaBootStrap&amp;lt;/listener-class&amp;gt;&lt;/font&gt;&lt;/div&gt;&lt;div&gt;&lt;font size=&quot;3&quot;&gt;&amp;nbsp; &amp;lt;/listener&amp;gt;&lt;/font&gt;&lt;/div&gt;" style="rounded=1;whiteSpace=wrap;html=1;" vertex="1" parent="1">
          <mxGeometry x="118.75" y="150" width="472.5" height="90" as="geometry" />
        </mxCell>
        <mxCell id="tDibTG8U5VY8NC5ciB29-4" value="&lt;font style=&quot;font-size: 14px&quot;&gt;初始化eureka&lt;br&gt;数据中心和环境&lt;/font&gt;" style="rounded=1;whiteSpace=wrap;html=1;" vertex="1" parent="1">
          <mxGeometry x="295" y="280" width="120" height="60" as="geometry" />
        </mxCell>
      </root>
    </mxGraphModel>
  </diagram>
</mxfile>
